<?xml version="1.0" encoding="utf-8"?>
<svg version="1.1" xmlns:xlink="http://www.w3.org/1999/xlink" width="12px" height="12px" viewBox="178 143  12 12" xmlns="http://www.w3.org/2000/svg">
  <path d="M 184 143  C 187.36 143  190 145.64  190 149  C 190 152.36  187.36 155  184 155  C 180.64 155  178 152.36  178 149  C 178 145.64  180.64 143  184 143  Z " fill-rule="nonzero" fill="#ffffff" stroke="none" />
  <path d="M 184 143.5  C 187.08 143.5  189.5 145.92  189.5 149  C 189.5 152.08  187.08 154.5  184 154.5  C 180.92 154.5  178.5 152.08  178.5 149  C 178.5 145.92  180.92 143.5  184 143.5  Z " stroke-width="1" stroke="#797979" fill="none" />
  <path d="M 184 152  C 182.32 152  181 150.68  181 149  C 181 147.32  182.32 146  184 146  C 185.68 146  187 147.32  187 149  C 187 150.68  185.68 152  184 152  " fill-rule="nonzero" fill="#797979" stroke="none" />
</svg>