<?xml version="1.0" encoding="utf-8"?>
<svg version="1.1" xmlns:xlink="http://www.w3.org/1999/xlink" width="12px" height="12px" viewBox="106 143  12 12" xmlns="http://www.w3.org/2000/svg">
  <path d="M 112 143  C 115.36 143  118 145.64  118 149  C 118 152.36  115.36 155  112 155  C 108.64 155  106 152.36  106 149  C 106 145.64  108.64 143  112 143  Z " fill-rule="nonzero" fill="#ffffff" stroke="none" />
  <path d="M 112 143.5  C 115.08 143.5  117.5 145.92  117.5 149  C 117.5 152.08  115.08 154.5  112 154.5  C 108.92 154.5  106.5 152.08  106.5 149  C 106.5 145.92  108.92 143.5  112 143.5  Z " stroke-width="1" stroke="#797979" fill="none" />
  <path d="M 112 152  C 110.32 152  109 150.68  109 149  C 109 147.32  110.32 146  112 146  C 113.68 146  115 147.32  115 149  C 115 150.68  113.68 152  112 152  " fill-rule="nonzero" fill="#797979" stroke="none" />
</svg>