<?xml version="1.0" encoding="utf-8"?>
<svg version="1.1" xmlns:xlink="http://www.w3.org/1999/xlink" width="12px" height="12px" viewBox="105 137  12 12" xmlns="http://www.w3.org/2000/svg">
  <path d="M 111 137  C 114.36 137  117 139.64  117 143  C 117 146.36  114.36 149  111 149  C 107.64 149  105 146.36  105 143  C 105 139.64  107.64 137  111 137  Z " fill-rule="nonzero" fill="#ffffff" stroke="none" />
  <path d="M 111 137.5  C 114.08 137.5  116.5 139.92  116.5 143  C 116.5 146.08  114.08 148.5  111 148.5  C 107.92 148.5  105.5 146.08  105.5 143  C 105.5 139.92  107.92 137.5  111 137.5  Z " stroke-width="1" stroke="#797979" fill="none" />
  <path d="M 111 146  C 109.32 146  108 144.68  108 143  C 108 141.32  109.32 140  111 140  C 112.68 140  114 141.32  114 143  C 114 144.68  112.68 146  111 146  " fill-rule="nonzero" fill="#797979" stroke="none" />
</svg>